<svg width="88" height="88" viewBox="0 0 88 88" fill="none" xmlns="http://www.w3.org/2000/svg">
<circle cx="5.40351" cy="5.40351" r="5.40351" fill="#52BCD4" fill-opacity="0.08"/>
<circle cx="5.40351" cy="24.7018" r="5.40351" fill="#52BCD4" fill-opacity="0.08"/>
<circle cx="5.40351" cy="43.9999" r="5.40351" fill="#52BCD4" fill-opacity="0.08"/>
<circle cx="5.40351" cy="63.2983" r="5.40351" fill="#52BCD4" fill-opacity="0.08"/>
<circle cx="5.40351" cy="82.5964" r="5.40351" fill="#52BCD4" fill-opacity="0.08"/>
<circle cx="24.7018" cy="5.40351" r="5.40351" fill="#52BCD4" fill-opacity="0.08"/>
<circle cx="24.7018" cy="24.7018" r="5.40351" fill="#52BCD4" fill-opacity="0.08"/>
<circle cx="24.7018" cy="43.9999" r="5.40351" fill="#52BCD4" fill-opacity="0.08"/>
<circle cx="24.7018" cy="63.2983" r="5.40351" fill="#52BCD4" fill-opacity="0.08"/>
<circle cx="24.7018" cy="82.5964" r="5.40351" fill="#52BCD4" fill-opacity="0.08"/>
<circle cx="44.0002" cy="5.40351" r="5.40351" fill="#52BCD4" fill-opacity="0.08"/>
<circle cx="44.0002" cy="24.7018" r="5.40351" fill="#52BCD4" fill-opacity="0.08"/>
<circle cx="44.0002" cy="43.9999" r="5.40351" fill="#52BCD4" fill-opacity="0.08"/>
<circle cx="44.0002" cy="63.2983" r="5.40351" fill="#52BCD4" fill-opacity="0.08"/>
<circle cx="44.0002" cy="82.5964" r="5.40351" fill="#52BCD4" fill-opacity="0.08"/>
<circle cx="63.298" cy="5.40351" r="5.40351" fill="#52BCD4" fill-opacity="0.08"/>
<circle cx="63.298" cy="24.7018" r="5.40351" fill="#52BCD4" fill-opacity="0.08"/>
<circle cx="63.298" cy="43.9999" r="5.40351" fill="#52BCD4" fill-opacity="0.08"/>
<circle cx="63.298" cy="63.2983" r="5.40351" fill="#52BCD4" fill-opacity="0.08"/>
<circle cx="63.298" cy="82.5964" r="5.40351" fill="#52BCD4" fill-opacity="0.08"/>
<circle cx="82.5964" cy="5.40351" r="5.40351" fill="#52BCD4" fill-opacity="0.08"/>
<circle cx="82.5964" cy="24.7018" r="5.40351" fill="#52BCD4" fill-opacity="0.08"/>
<circle cx="82.5964" cy="43.9999" r="5.40351" fill="#52BCD4" fill-opacity="0.08"/>
<circle cx="82.5964" cy="63.2983" r="5.40351" fill="#52BCD4" fill-opacity="0.08"/>
<circle cx="82.5964" cy="82.5964" r="5.40351" fill="#52BCD4" fill-opacity="0.08"/>
</svg>
