<svg width="274" height="255" viewBox="0 0 274 255" fill="none" xmlns="http://www.w3.org/2000/svg">
<rect x="1.19385" y="56.7017" width="48.9322" height="12.5085" rx="6.25424" fill="#31353F"/>
<rect x="0.891113" y="186.79" width="86.4284" height="12.5085" rx="6.25424" fill="#31353F"/>
<rect x="0.891113" y="30.8508" width="86.4284" height="12.5085" rx="6.25424" fill="#31353F"/>
<rect x="0.891113" y="5" width="45.4417" height="12.5085" rx="6.25424" fill="#31353F"/>
<rect x="61.4795" y="5" width="71.2812" height="12.5085" rx="6.25424" fill="#31353F"/>
<rect x="1.19385" y="135.088" width="53.7061" height="12.5085" rx="6.25424" fill="#31353F"/>
<rect x="57.2866" y="109.237" width="85.9298" height="12.5085" rx="6.25424" fill="#31353F"/>
<rect x="57.0249" y="212.641" width="105.14" height="12.5085" rx="6.25424" fill="#31353F"/>
<rect x="153.958" y="109.237" width="106.219" height="12.5085" rx="6.25424" fill="#31353F"/>
<rect x="38.3135" y="160.939" width="103.358" height="12.5085" rx="6.25424" fill="#31353F"/>
<rect x="96.23" y="238.492" width="32.9675" height="12.5085" rx="6.25424" fill="#3AB87C"/>
<rect x="171.075" y="212.641" width="73.9542" height="12.5085" rx="6.25424" fill="#31353F"/>
<rect x="152.764" y="160.939" width="106.219" height="12.5085" rx="6.25424" fill="#31353F"/>
<rect x="143.453" y="238.492" width="55.2429" height="12.5085" rx="6.25424" fill="#31353F"/>
<rect x="66.834" y="56.7017" width="131.282" height="12.5085" rx="6.25424" fill="#31353F"/>
<rect x="98.0117" y="186.79" width="99.7936" height="12.5085" rx="6.25424" fill="#31353F"/>
<rect x="98.0117" y="30.8508" width="99.7936" height="12.5085" rx="6.25424" fill="#31353F"/>
<rect x="208.498" y="30.8508" width="19.6023" height="12.5085" rx="6.25424" fill="#31353F"/>
<rect x="73.9956" y="135.088" width="88.3167" height="12.5085" rx="6.25424" fill="#31353F"/>
<rect x="175.44" y="135.088" width="48.9322" height="12.5085" rx="6.25424" fill="#31353F"/>
<rect y="83.3865" width="87.1232" height="12.5085" rx="6.25424" fill="#31353F"/>
<rect x="1.19385" y="109.237" width="45.3518" height="12.5085" rx="6.25424" fill="#31353F"/>
<rect x="95.4771" y="83.3865" width="88.3167" height="12.5085" rx="6.25424" fill="#31353F"/>
<rect x="192.148" y="83.3865" width="45.3518" height="12.5085" rx="6.25424" fill="#31353F"/>
<rect x="0.891113" y="212.641" width="45.3518" height="12.5085" rx="6.25424" fill="#31353F"/>
<rect y="160.939" width="26.7304" height="12.5085" rx="6.25424" fill="#4D89CE"/>
<rect y="238.492" width="81.9733" height="12.5085" rx="6.25424" fill="#31353F"/>
<g filter="url(#filter0_d_103_932)">
<rect x="32.522" y="21.678" width="101.736" height="101.736" rx="10" fill="#4D89CE" fill-opacity="0.1" shape-rendering="crispEdges"/>
<rect x="33.022" y="22.178" width="100.736" height="100.736" rx="9.5" stroke="#4D89CE" shape-rendering="crispEdges"/>
</g>
<path d="M80.0625 76.1719C79.6406 79.7812 78.3047 82.5703 76.0547 84.5391C73.8203 86.4922 70.8438 87.4688 67.125 87.4688C63.0938 87.4688 59.8594 86.0234 57.4219 83.1328C55 80.2422 53.7891 76.375 53.7891 71.5312V68.25C53.7891 65.0781 54.3516 62.2891 55.4766 59.8828C56.6172 57.4766 58.2266 55.6328 60.3047 54.3516C62.3828 53.0547 64.7891 52.4062 67.5234 52.4062C71.1484 52.4062 74.0547 53.4219 76.2422 55.4531C78.4297 57.4688 79.7031 60.2656 80.0625 63.8438H75.5391C75.1484 61.125 74.2969 59.1562 72.9844 57.9375C71.6875 56.7188 69.8672 56.1094 67.5234 56.1094C64.6484 56.1094 62.3906 57.1719 60.75 59.2969C59.125 61.4219 58.3125 64.4453 58.3125 68.3672V71.6719C58.3125 75.375 59.0859 78.3203 60.6328 80.5078C62.1797 82.6953 64.3438 83.7891 67.125 83.7891C69.625 83.7891 71.5391 83.2266 72.8672 82.1016C74.2109 80.9609 75.1016 78.9844 75.5391 76.1719H80.0625ZM100.195 77.3906H94.0078L92.1328 87H88.7812L90.6562 77.3906H85.0547V74.1797H91.2656L92.8828 65.8828H86.8359V62.625H93.5156L95.4375 52.875H98.7891L96.8672 62.625H103.055L104.977 52.875H108.352L106.43 62.625H111.211V65.8828H105.797L104.18 74.1797H109.453V77.3906H103.57L101.695 87H98.3203L100.195 77.3906ZM94.6172 74.1797H100.805L102.422 65.8828H96.2344L94.6172 74.1797Z" fill="white"/>
<g filter="url(#filter1_d_103_932)">
<rect x="161.777" y="138.424" width="86.7254" height="86.7254" rx="10" fill="#52BCD4" fill-opacity="0.1" shape-rendering="crispEdges"/>
<rect x="162.277" y="138.924" width="85.7254" height="85.7254" rx="9.5" stroke="#4D89CE" shape-rendering="crispEdges"/>
</g>
<path d="M195.808 170.08H199.766V191.223C199.766 194.081 198.905 196.316 197.182 197.929C195.473 199.542 193.19 200.349 190.333 200.349C187.366 200.349 185.055 199.59 183.401 198.073C181.747 196.555 180.919 194.429 180.919 191.695H184.857C184.857 193.404 185.322 194.737 186.252 195.694C187.195 196.651 188.555 197.129 190.333 197.129C191.96 197.129 193.272 196.617 194.27 195.591C195.282 194.566 195.794 193.13 195.808 191.285V170.08ZM215.27 186.629C211.893 185.659 209.432 184.469 207.887 183.061C206.356 181.639 205.59 179.889 205.59 177.811C205.59 175.459 206.527 173.518 208.4 171.987C210.287 170.442 212.734 169.669 215.742 169.669C217.793 169.669 219.618 170.066 221.217 170.859C222.831 171.652 224.075 172.746 224.95 174.14C225.838 175.535 226.283 177.059 226.283 178.713H222.325C222.325 176.909 221.751 175.494 220.602 174.468C219.454 173.429 217.834 172.91 215.742 172.91C213.8 172.91 212.283 173.34 211.189 174.202C210.109 175.049 209.569 176.232 209.569 177.75C209.569 178.966 210.082 179.999 211.107 180.846C212.146 181.68 213.903 182.446 216.377 183.143C218.866 183.84 220.807 184.613 222.202 185.46C223.61 186.294 224.649 187.272 225.319 188.393C226.002 189.514 226.344 190.833 226.344 192.351C226.344 194.771 225.401 196.712 223.514 198.175C221.627 199.625 219.105 200.349 215.947 200.349C213.896 200.349 211.982 199.959 210.205 199.18C208.427 198.387 207.053 197.307 206.083 195.94C205.126 194.573 204.647 193.021 204.647 191.285H208.605C208.605 193.089 209.268 194.518 210.594 195.571C211.934 196.61 213.718 197.129 215.947 197.129C218.025 197.129 219.618 196.706 220.725 195.858C221.833 195.01 222.386 193.855 222.386 192.392C222.386 190.929 221.874 189.801 220.848 189.008C219.823 188.202 217.963 187.409 215.27 186.629Z" fill="white"/>
<defs>
<filter id="filter0_d_103_932" x="7.52197" y="0.677979" width="151.736" height="151.736" filterUnits="userSpaceOnUse" color-interpolation-filters="sRGB">
<feFlood flood-opacity="0" result="BackgroundImageFix"/>
<feColorMatrix in="SourceAlpha" type="matrix" values="0 0 0 0 0 0 0 0 0 0 0 0 0 0 0 0 0 0 127 0" result="hardAlpha"/>
<feMorphology radius="10" operator="dilate" in="SourceAlpha" result="effect1_dropShadow_103_932"/>
<feOffset dy="4"/>
<feGaussianBlur stdDeviation="7.5"/>
<feComposite in2="hardAlpha" operator="out"/>
<feColorMatrix type="matrix" values="0 0 0 0 0.12549 0 0 0 0 0.160784 0 0 0 0 0.258824 0 0 0 0.05 0"/>
<feBlend mode="normal" in2="BackgroundImageFix" result="effect1_dropShadow_103_932"/>
<feBlend mode="normal" in="SourceGraphic" in2="effect1_dropShadow_103_932" result="shape"/>
</filter>
<filter id="filter1_d_103_932" x="136.777" y="117.424" width="136.726" height="136.725" filterUnits="userSpaceOnUse" color-interpolation-filters="sRGB">
<feFlood flood-opacity="0" result="BackgroundImageFix"/>
<feColorMatrix in="SourceAlpha" type="matrix" values="0 0 0 0 0 0 0 0 0 0 0 0 0 0 0 0 0 0 127 0" result="hardAlpha"/>
<feMorphology radius="10" operator="dilate" in="SourceAlpha" result="effect1_dropShadow_103_932"/>
<feOffset dy="4"/>
<feGaussianBlur stdDeviation="7.5"/>
<feComposite in2="hardAlpha" operator="out"/>
<feColorMatrix type="matrix" values="0 0 0 0 0.12549 0 0 0 0 0.160784 0 0 0 0 0.258824 0 0 0 0.05 0"/>
<feBlend mode="normal" in2="BackgroundImageFix" result="effect1_dropShadow_103_932"/>
<feBlend mode="normal" in="SourceGraphic" in2="effect1_dropShadow_103_932" result="shape"/>
</filter>
</defs>
</svg>
